# xmcd CD database file
#
# Track frame offsets:
#	150
#	44437
#	74469
#	105905
#	133656
#	154061
#	178579
#	199784
#	214418
#	239543
#	260241
#	285115
#	311567
#
# Disc length: 4376 seconds
#
# Revision: 0
# Processed by: cddbd v1.5.2PL0 Copyright (c) Steve Scherf et al.
# Submitted via: CDex 1.51
#
DISCID=c111160d
DTITLE=Ken Wood Octet - Airmail Special!
DYEAR=2006
DGENRE=Jazz
TTITLE0=Ken Wood blues
TTITLE1=Airmail special
TTITLE2=Just blues
TTITLE3=Nave you meet Miss Georgia Brown?
TTITLE4=Embraceable you
TTITLE5=Topsy
TTITLE6=Anatole in your garden
TTITLE7=Venez donc chez moi
TTITLE8=Que rest-t-il de nous amours?
TTITLE9=The Sheik´s caravan
TTITLE10=Joy spring
TTITLE11=Thirty years
TTITLE12=All of me
EXTD=YEAR: 2006
EXTT0=
EXTT1=
EXTT2=
EXTT3=
EXTT4=
EXTT5=
EXTT6=
EXTT7=
EXTT8=
EXTT9=
EXTT10=
EXTT11=
EXTT12=
PLAYORDER=
